<svg xmlns="http://www.w3.org/2000/svg" width="960" height="540" viewBox="0 0 960 540" role="img" aria-labelledby="title desc">
<title id="title">多层研究</title><desc id="desc">Skill 工作方式的概念示意，不是运行结果截图。</desc>
<rect width="960" height="540" fill="#E3ECE5"/>
<text x="52" y="63" font-family="Consolas, monospace" font-size="22" font-weight="500" text-anchor="start" fill="#314E45">SKILL / 03</text>
<text x="908" y="63" font-family="Microsoft YaHei, PingFang SC, sans-serif" font-size="22" font-weight="500" text-anchor="end" fill="#314E45">多层研究</text>
<path d="M52 86 H908" fill="none" stroke="#ADC3B5" stroke-width="1" stroke-linecap="round" stroke-linejoin="round"/>
<path d="M182 324 L374 241 L566 324 L374 407 Z" fill="#B0C7BE" stroke="#66887E" stroke-width="3" stroke-linecap="round" stroke-linejoin="round"/><path d="M182 282 L374 199 L566 282 L374 365 Z" fill="#CBDAD2" stroke="#66887E" stroke-width="3" stroke-linecap="round" stroke-linejoin="round"/><path d="M182 240 L374 157 L566 240 L374 323 Z" fill="#EEF3E9" stroke="#66887E" stroke-width="3" stroke-linecap="round" stroke-linejoin="round"/><path d="M374 157 L374 418" fill="none" stroke="#63887B" stroke-width="3" stroke-linecap="round" stroke-linejoin="round"/><path d="M591 268 H630 M617 257 l13 11 -13 11" fill="none" stroke="#63887B" stroke-width="4" stroke-linecap="round" stroke-linejoin="round"/><rect x="654" y="173" width="211" height="208" rx="3" fill="#F8F9F1" stroke="#91ACA0" stroke-width="3"/><text x="678" y="226" font-family="Microsoft YaHei, PingFang SC, sans-serif" font-size="30" font-weight="500" text-anchor="start" fill="#243D37">证据与判断</text><path d="M680 255 H839" fill="none" stroke="#C5D3C6" stroke-width="5" stroke-linecap="round" stroke-linejoin="round"/><path d="M680 282 H811" fill="none" stroke="#C5D3C6" stroke-width="5" stroke-linecap="round" stroke-linejoin="round"/><text x="680" y="332" font-family="Consolas, monospace" font-size="25" font-weight="500" text-anchor="start" fill="#638277">[1]  [2]  [3]</text>
<path d="M52 484 H908" fill="none" stroke="#ADC3B5" stroke-width="1" stroke-linecap="round" stroke-linejoin="round"/>
<text x="52" y="520" font-family="Consolas, monospace" font-size="18" font-weight="500" text-anchor="start" fill="#314E45">DAIZHOUCHEN / OPEN SOURCE</text>
<text x="908" y="520" font-family="Microsoft YaHei, PingFang SC, sans-serif" font-size="18" font-weight="500" text-anchor="end" fill="#314E45">工作方式示意</text>
</svg>